<svg width="50" height="50" viewBox="0 0 50 50" fill="none" xmlns="http://www.w3.org/2000/svg">
<path d="M42.4999 7.27513C40.2079 4.95995 37.4778 3.12431 34.469 1.87527C31.4601 0.626233 28.2327 -0.0112003 24.9749 0.000148924C11.325 0.000148924 0.2 11.1251 0.2 24.7751C0.2 29.1501 1.35 33.4001 3.49999 37.15L0 50L13.125 46.55C16.75 48.525 20.8249 49.575 24.9749 49.575C38.6249 49.575 49.7499 38.45 49.7499 24.8001C49.7499 18.1751 47.1749 11.9501 42.4999 7.27513ZM24.9749 45.375C21.2749 45.375 17.6499 44.375 14.475 42.5L13.725 42.05L5.92498 44.1L7.99998 36.5L7.49998 35.725C5.44435 32.4425 4.35284 28.6482 4.34999 24.7751C4.34999 13.4251 13.6 4.17514 24.9499 4.17514C30.4499 4.17514 35.6249 6.32513 39.4999 10.2251C41.4186 12.135 42.9391 14.4068 43.9734 16.9087C45.0076 19.4106 45.5349 22.0929 45.5249 24.8001C45.5749 36.15 36.3249 45.375 24.9749 45.375ZM36.2749 29.9751C35.6499 29.6751 32.5999 28.1751 32.0499 27.9501C31.4749 27.7501 31.0749 27.6501 30.6499 28.2501C30.2249 28.8751 29.0499 30.2751 28.6999 30.6751C28.3499 31.1001 27.9749 31.1501 27.3499 30.8251C26.7249 30.5251 24.7249 29.8501 22.3749 27.7501C20.5249 26.1001 19.2999 24.0751 18.9249 23.4501C18.5749 22.8251 18.8749 22.5001 19.1999 22.1751C19.4749 21.9001 19.8249 21.4501 20.1249 21.1001C20.4249 20.7501 20.5499 20.4751 20.7499 20.0751C20.9499 19.6501 20.8499 19.3001 20.6999 19.0001C20.5499 18.7001 19.2999 15.6501 18.7999 14.4001C18.2999 13.2001 17.7749 13.3501 17.3999 13.3251H16.2C15.775 13.3251 15.125 13.4751 14.55 14.1001C14 14.7251 12.4 16.2251 12.4 19.2751C12.4 22.3251 14.625 25.2751 14.925 25.6751C15.225 26.1001 19.2999 32.3501 25.4999 35.025C26.9749 35.675 28.1249 36.05 29.0249 36.325C30.4999 36.8 31.8499 36.725 32.9249 36.575C34.1249 36.4 36.5999 35.075 37.0999 33.625C37.6249 32.1751 37.6249 30.9501 37.4499 30.6751C37.2749 30.4001 36.8999 30.2751 36.2749 29.9751Z" fill="#004557"/>
</svg>